<svg width="36" height="31" viewBox="0 0 36 31" fill="none" xmlns="http://www.w3.org/2000/svg">
<path d="M2.25 0.98584C1.00725 0.98584 0 2.10182 0 3.47872V28.4075C0 29.7844 1.00725 30.9004 2.25 30.9004H4.5H33.75C34.9927 30.9004 36 29.7844 36 28.4075V3.47872C36 2.10182 34.9927 0.98584 33.75 0.98584H2.25ZM5.04346 2.64776H30.9565L18.0015 13.0981L18 13.0997L17.9985 13.0981L5.04346 2.64776ZM4.5 8.37684L14.2471 16.2401L4.5 23.8015V8.37684ZM31.5 8.3785V23.8015L21.7529 16.2401L31.5 8.3785ZM15.5303 17.2739L18 19.267L20.4697 17.2739L31.5 25.8302V29.2385H4.5V25.8302L15.5303 17.2739Z" fill="white"/>
</svg>
