<svg width="31" height="31" viewBox="0 0 31 31" fill="none" xmlns="http://www.w3.org/2000/svg">
<path fill-rule="evenodd" clip-rule="evenodd" d="M29.2892 30.9116C30.234 30.9116 31 30.1477 31 29.2056V1.70602C31 0.763597 30.2339 0 29.2892 0H1.71091C0.765786 0 0 0.763713 0 1.70602V29.2055C0 30.1477 0.765786 30.9115 1.71091 30.9115H29.2892V30.9116ZM21.3895 30.9116V18.941H25.419L26.0223 14.2758H21.3894V11.2973C21.3894 9.94657 21.7655 9.02615 23.708 9.02615L26.1854 9.025V4.85249C25.7569 4.79573 24.2862 4.66868 22.5754 4.66868C19.0034 4.66868 16.558 6.84273 16.558 10.8354V14.2758H12.5181V18.941H16.558V30.9115H21.3895V30.9116Z" fill="white"/>
</svg>
