<svg width="32" height="33" viewBox="0 0 32 33" fill="none" xmlns="http://www.w3.org/2000/svg">
<path d="M10.6679 16.946C10.6679 14.009 13.0551 11.6275 16.0006 11.6275C18.9462 11.6275 21.3346 14.009 21.3346 16.946C21.3346 19.883 18.9462 22.2646 16.0006 22.2646C13.0551 22.2646 10.6679 19.883 10.6679 16.946ZM7.7845 16.946C7.7845 21.4707 11.4629 25.1384 16.0006 25.1384C20.5384 25.1384 24.2168 21.4707 24.2168 16.946C24.2168 12.4214 20.5384 8.75368 16.0006 8.75368C11.4629 8.75368 7.7845 12.4214 7.7845 16.946ZM22.622 8.42885C22.6215 9.48621 23.4808 10.3437 24.5413 10.3441C25.6017 10.3446 26.4617 9.48774 26.4621 8.43038C26.4625 7.37302 25.6032 6.51552 24.5428 6.51509H24.542C23.4821 6.51559 22.6229 7.37199 22.622 8.42885ZM9.53638 29.9325C7.97638 29.8617 7.12848 29.6026 6.565 29.3837C5.81796 29.0937 5.28495 28.7483 4.72454 28.1903C4.16413 27.6323 3.81724 27.1013 3.52769 26.3564C3.30804 25.7948 3.04819 24.9491 2.97727 23.3936C2.8997 21.7119 2.88421 21.2067 2.88421 16.9462C2.88421 12.6856 2.90098 12.1818 2.97727 10.4987C3.04831 8.94322 3.31008 8.09917 3.52769 7.53592C3.81852 6.79104 4.1649 6.25957 4.72454 5.70078C5.28418 5.142 5.81668 4.79611 6.565 4.5074C7.12822 4.28838 7.97638 4.02928 9.53638 3.95857C11.223 3.88122 11.7296 3.86578 16.0006 3.86578C20.2717 3.86578 20.7788 3.8825 22.4668 3.95857C24.0268 4.02941 24.8733 4.29042 25.4382 4.5074C26.1852 4.79611 26.7183 5.14276 27.2787 5.70078C27.8391 6.2588 28.1847 6.79104 28.4755 7.53592C28.6952 8.09751 28.955 8.94322 29.0259 10.4987C29.1035 12.1818 29.119 12.6856 29.119 16.9462C29.119 21.2067 29.1035 21.7105 29.0259 23.3936C28.9549 24.9491 28.6938 25.7946 28.4755 26.3564C28.1847 27.1013 27.8383 27.6328 27.2787 28.1903C26.719 28.7478 26.1852 29.0937 25.4382 29.3837C24.875 29.6027 24.0268 29.8618 22.4668 29.9325C20.7802 30.0098 20.2736 30.0253 16.0006 30.0253C11.7277 30.0253 11.2225 30.0098 9.53638 29.9325ZM9.4039 1.08832C7.70053 1.16567 6.53658 1.43497 5.52009 1.82937C4.46738 2.23665 3.57621 2.78305 2.68568 3.6696C1.79514 4.55616 1.24856 5.44615 0.840098 6.49582C0.444562 7.51001 0.174471 8.66995 0.0968999 10.3684C0.0180487 12.0695 0 12.6134 0 16.946C0 21.2787 0.0180487 21.8226 0.0968999 23.5237C0.174471 25.2223 0.444562 26.3821 0.840098 27.3963C1.24856 28.4453 1.79527 29.3363 2.68568 30.2225C3.57608 31.1087 4.46738 31.6543 5.52009 32.0627C6.5385 32.4571 7.70053 32.7264 9.4039 32.8038C11.1108 32.8811 11.6554 32.9004 16.0006 32.9004C20.3459 32.9004 20.8913 32.8824 22.5974 32.8038C24.3009 32.7264 25.4641 32.4571 26.4812 32.0627C27.5333 31.6543 28.4251 31.109 29.3156 30.2225C30.2061 29.3359 30.7516 28.4453 31.1612 27.3963C31.5567 26.3821 31.8281 25.2221 31.9044 23.5237C31.982 21.8213 32 21.2787 32 16.946C32 12.6134 31.982 12.0695 31.9044 10.3684C31.8268 8.66982 31.5567 7.50937 31.1612 6.49582C30.7516 5.44679 30.2047 4.55756 29.3156 3.6696C28.4265 2.78165 27.5333 2.23665 26.4825 1.82937C25.4641 1.43497 24.3007 1.16439 22.5987 1.08832C20.8926 1.01097 20.3472 0.991699 16.0019 0.991699C11.6567 0.991699 11.1108 1.0097 9.4039 1.08832Z" fill="white"/>
</svg>
