<svg width="31" height="26" viewBox="0 0 31 26" fill="none" xmlns="http://www.w3.org/2000/svg">
<path d="M31 3.94098C29.8598 4.44163 28.6351 4.78009 27.3474 4.93222C28.6616 4.15354 29.6683 2.9196 30.1437 1.45101C28.8953 2.18468 27.5291 2.70118 26.1044 2.97808C24.9449 1.75519 23.2916 0.991699 21.4624 0.991699C17.9514 0.991699 15.1039 3.8081 15.1039 7.28427C15.1039 7.7768 15.16 8.25731 15.2678 8.71866C9.98242 8.45582 5.29661 5.95067 2.16015 2.14409C1.61247 3.07376 1.29899 4.15467 1.29899 5.30796C1.29899 7.49082 2.42183 9.41677 4.12797 10.545C3.11796 10.514 2.13013 10.2442 1.24703 9.75823V9.83775C1.24703 12.8868 3.43878 15.4293 6.3482 16.0075C5.81374 16.1524 5.25286 16.2281 4.6726 16.2281C4.26234 16.2281 3.86431 16.1897 3.47547 16.1173C4.28475 18.6165 6.63336 20.4356 9.41538 20.487C7.2389 22.1752 4.49644 23.1816 1.51783 23.1816C1.0048 23.1816 0.497763 23.1513 0 23.0919C2.81477 24.8778 6.15686 25.9204 9.74831 25.9204C21.4451 25.9204 27.8421 16.3319 27.8421 8.01665C27.8421 7.74366 27.836 7.4727 27.8227 7.20272C29.0691 6.3107 30.145 5.20621 31 3.94098Z" fill="white"/>
</svg>
