<svg width="819" height="704" viewBox="0 0 819 704" fill="none" xmlns="http://www.w3.org/2000/svg">
<g opacity="0.2">
<path opacity="0.2" d="M814.039 582.716L624.336 692.671L187.34 416.504L381.228 302.289L814.039 582.716Z" fill="black"/>
</g>
<path d="M643.239 691.987L644.707 354.215L657.587 346.999L656.119 684.77C656.112 688.507 654.592 691.466 652.319 692.915C647.773 695.067 643.227 697.965 639.439 700.132C641.712 698.683 643.232 695.724 643.239 691.987Z" fill="black"/>
<path d="M646.424 354.006L658.535 346.893L658.562 301.449L646.452 308.561L646.424 354.006Z" fill="black"/>
<path d="M199.25 10.8389C192.973 7.00392 187.391 9.77575 187.386 17.8269L187.362 62.474L647.65 354.193L647.674 309.546C647.679 301.495 642.8 291.843 635.826 287.989L199.25 10.8389Z" fill="black"/>
<path d="M197.752 9.864C197.057 9.11172 196.36 9.09701 195.663 9.0823C194.967 9.06759 194.27 9.05288 193.573 9.03817C192.877 9.02346 192.18 9.00875 192.179 9.74632L204.036 2.62071L204.732 2.63542L205.429 2.65013C205.429 2.65013 205.429 2.65013 206.126 2.66484L206.822 2.67955L207.519 2.69426C207.519 2.69426 207.519 2.69426 208.216 2.70897L208.913 2.72368C208.913 2.72368 208.913 2.72368 209.609 2.73839C209.609 2.73839 209.609 2.73839 210.306 2.7531C210.306 2.7531 210.306 2.7531 211.003 2.76781C211.699 2.78252 212.395 3.5348 212.395 3.5348L648.049 279.743C648.744 280.495 649.441 280.51 650.136 281.262L650.832 282.014L651.527 282.767C651.527 282.767 651.527 282.767 652.223 283.519C652.223 283.519 652.223 283.519 652.918 284.271C652.918 284.271 652.918 284.271 653.613 285.023C653.612 285.761 654.309 285.776 654.307 286.513C654.307 286.513 654.307 286.513 654.306 287.251C654.306 287.251 654.306 287.251 654.305 287.988L655 288.741L655.696 289.493C655.696 289.493 655.694 290.23 656.391 290.245C656.39 290.983 657.086 290.997 657.086 290.997C657.086 290.997 657.085 291.735 657.782 291.75C657.78 292.487 657.78 292.487 658.476 293.24C658.474 293.977 658.474 293.977 659.17 294.729L659.168 295.467C659.168 295.467 659.168 295.467 659.167 296.204C659.166 296.942 659.166 296.942 659.165 297.68L659.163 298.417C659.163 298.417 659.163 298.417 659.162 299.155C659.162 299.155 659.162 299.155 659.161 299.892C659.159 300.63 659.158 301.367 659.157 302.105L647.3 309.231C647.301 308.493 647.304 307.018 647.305 306.28C647.305 306.28 647.305 306.28 647.306 305.543C647.308 304.805 646.612 304.053 646.615 302.578C646.616 301.84 645.922 300.35 645.923 299.613C645.228 298.861 645.231 297.385 644.535 296.633C643.84 295.881 643.841 295.143 643.147 293.653C642.452 292.901 641.756 292.149 641.758 291.411C641.758 291.411 641.758 291.411 641.062 290.659C640.367 289.907 640.367 289.907 639.672 289.155L638.976 288.402C638.281 287.65 637.585 286.898 636.889 286.883L199.841 10.6457C199.144 10.631 198.449 9.87871 197.752 9.864Z" fill="black"/>
<path d="M617.521 318.611C611.935 314.777 607.058 305.758 607.069 299.072C607.083 291.643 611.981 288.774 617.567 292.608C623.152 296.441 628.03 305.46 628.018 312.146C628.005 319.576 623.805 322.459 617.521 318.611Z" fill="#20995C"/>
<path d="M585.688 298.026C580.102 294.193 575.225 285.174 575.237 278.488C575.25 271.058 580.148 268.19 585.734 272.023C591.32 275.856 596.197 284.875 596.185 291.562C596.172 298.991 591.274 301.859 585.688 298.026Z" fill="#20995C"/>
<path d="M554.546 278.199C548.96 274.366 544.083 265.347 544.095 258.66C544.108 251.231 549.006 248.363 554.592 252.196C560.177 256.029 565.055 265.048 565.043 271.734C565.03 279.164 560.131 282.032 554.546 278.199Z" fill="#20995C"/>
<path d="M228.996 343.92C217.831 337.004 208.752 344.821 200.363 368.067L382.491 483.23C346.206 459.468 349.726 403.799 341.368 369.811C337.188 353.551 328.12 340.823 318.351 334.68C307.884 327.783 296.714 330.405 293.912 347.204C288.31 380.067 288.985 423.379 271.54 412.618C254.094 401.857 247.135 362.038 234.577 349.213C232.484 346.953 230.391 345.427 228.996 343.92Z" fill="url(#paint0_linear)" fill-opacity="0.55"/>
<path d="M419.364 324.991C392.055 348.598 410.875 497.597 382.886 482.037L617.978 631.206C616.58 627.474 594.224 549.287 570.435 534.583C564.837 530.733 558.538 531.294 552.935 537.785C546.632 545.733 537.527 558.034 531.225 563.766C527.023 567.341 518.624 568.582 510.228 563.175C497.634 554.696 483.647 532.882 480.172 485.511C475.307 420.372 456.452 338.591 434.062 324.665C429.165 320.834 424.265 321.435 419.364 324.991Z" fill="url(#paint1_linear)"/>
<path d="M619.263 632.714L619.732 367.666L619.033 367.651L198.946 95.9227L198.466 367.652L619.263 632.714ZM617.633 369.106L617.172 629.7L200.564 366.212L201.037 98.9368L617.633 369.106Z" fill="black"/>
<path d="M618.049 410.647L618.748 409.187L201.925 143.812L200.529 145.257L618.049 410.647Z" fill="black"/>
<path d="M617.78 454.008L618.479 452.548L201.658 187.921L200.262 189.366L617.78 454.008Z" fill="black"/>
<path d="M617.514 497.369L618.213 495.909L201.392 231.281L199.996 232.726L617.514 497.369Z" fill="black"/>
<path d="M618.64 539.994L620.036 538.549L202.518 273.907L201.819 275.366L618.64 539.994Z" fill="black"/>
<path d="M616.985 584.091L617.684 582.631L200.861 317.256L199.464 319.439L616.985 584.091Z" fill="url(#paint2_linear)"/>
<path d="M535.464 415.619C536.183 414.893 537.622 414.933 538.34 415.698C539.059 415.718 539.059 416.464 539.059 416.464L539.046 438.836C539.046 438.836 539.045 439.582 538.326 439.562C538.326 439.562 538.326 439.562 537.607 439.542L537.62 417.17C534.744 416.345 534.744 415.599 535.464 415.619Z" fill="#33B275"/>
<path d="M527.909 395.315C527.909 396.057 527.909 396.057 527.909 395.315C527.909 396.057 527.909 396.057 527.909 395.315C527.909 396.057 527.909 396.057 527.909 396.057C527.909 396.057 527.909 396.057 528.611 396.818C528.611 396.818 528.611 396.818 529.313 396.838C530.015 396.857 530.015 397.599 530.717 397.619C531.42 397.638 531.42 397.638 532.122 398.4C532.824 398.419 532.824 398.419 533.527 398.439C534.229 398.459 534.229 398.459 534.931 398.478C535.634 398.498 535.634 398.498 536.336 398.518C537.038 398.537 537.038 398.537 537.741 398.557C538.443 398.577 538.443 398.577 539.146 397.855C539.848 397.874 539.849 397.133 540.551 397.152C542.659 395.728 543.362 395.006 543.363 393.523L543.349 418.737C543.348 420.22 542.645 421.684 540.538 422.366C539.835 422.347 539.835 423.088 539.132 423.069L538.43 423.049C538.43 423.049 538.43 423.049 537.728 423.029L537.025 423.01L536.323 422.99C536.323 422.99 536.323 422.99 535.62 422.97L534.918 422.951L534.216 422.931L533.513 422.911C533.513 422.911 533.513 422.911 532.811 422.892C532.811 422.892 532.811 422.892 532.109 422.872C532.109 422.872 532.109 422.872 531.406 422.852C530.704 422.833 530.704 422.091 530.002 422.071C530.002 422.071 530.002 422.071 529.3 421.31L527.909 395.315Z" fill="black"/>
<path d="M530.813 391.626C527.325 393.655 527.326 397.249 530.815 399.534C534.303 401.819 539.884 402.024 544.069 400.021C547.556 397.993 547.556 394.399 544.067 392.114C539.881 389.803 534.3 389.598 530.813 391.626Z" fill="#33B275"/>
<path d="M535.001 372.99C535.721 373.016 535.721 373.016 535.001 372.99C535.721 373.016 535.721 373.016 535.001 372.99C535.721 373.016 535.721 373.016 535.001 372.99C535.721 373.016 535.721 373.016 535.001 372.99C535.721 373.76 535.721 373.76 536.442 373.786L537.162 373.813L537.882 373.839L538.602 373.865C539.322 373.892 539.322 373.147 539.322 373.147L539.328 395.477C539.328 395.477 539.328 396.221 538.608 396.195C538.608 396.195 538.608 396.195 537.888 396.169L535.001 372.99C535.001 372.245 535.001 372.245 535.001 372.99C535.001 372.245 535.001 372.99 535.001 372.99Z" fill="black"/>
<path d="M535.842 371.495C535.144 372.171 535.145 372.88 535.843 372.913C536.542 373.656 537.939 373.723 538.637 373.047C539.334 372.372 539.334 371.663 538.635 371.629C537.936 370.886 536.54 370.82 535.842 371.495Z" fill="#33B275"/>
<path d="M491.405 347.775C492.127 347.049 493.569 347.089 494.29 347.854C495.011 347.874 495.011 348.62 495.011 348.62L494.997 370.997C494.997 370.997 494.997 371.743 494.276 371.723C494.276 371.723 494.276 371.723 493.555 371.703L493.568 349.326C490.683 348.501 491.405 348.521 491.405 347.775ZM491.404 350.013C491.404 350.013 491.404 349.267 491.404 350.013C491.404 349.267 491.404 350.013 491.404 350.013ZM495.01 349.366C495.01 350.112 495.01 350.112 495.01 349.366C495.01 350.112 495.01 350.112 495.01 349.366Z" fill="#33B275"/>
<path d="M483.857 328.223C483.857 328.223 483.856 328.965 483.857 328.223C483.856 328.965 483.856 328.965 483.857 328.223C483.856 328.965 483.856 328.965 483.856 328.965C483.856 328.965 483.856 328.965 484.558 329.726C484.558 329.726 484.558 329.726 485.261 329.746C485.963 329.765 485.963 330.507 486.665 330.527C487.367 330.546 487.367 330.546 488.069 331.308C488.772 331.327 488.772 331.327 489.474 331.347C490.176 331.367 490.176 331.367 490.879 331.386C491.581 331.406 491.581 331.406 492.284 331.426C492.986 331.445 492.986 331.445 493.688 331.465C494.391 331.485 494.391 331.485 495.093 330.763C495.796 330.782 495.796 330.041 496.499 330.061C498.606 329.378 499.309 327.914 499.31 326.431L499.297 351.645C499.296 353.128 498.593 354.592 496.485 355.274C495.783 355.255 495.782 355.996 495.08 355.977L494.378 355.957C494.378 355.957 494.378 355.957 493.675 355.937L492.973 355.918L492.27 355.898C492.27 355.898 492.27 355.898 491.568 355.878L490.866 355.859L490.163 355.839L489.461 355.819C489.461 355.819 489.461 355.819 488.759 355.8C488.759 355.8 488.758 355.8 488.056 355.78C488.056 355.78 488.056 355.78 487.354 355.76C486.651 355.741 486.652 354.999 485.949 354.979C485.949 354.979 485.949 354.979 485.247 354.218L483.857 328.223Z" fill="black"/>
<path d="M486.76 324.534C483.273 326.562 483.274 330.157 486.762 332.441C490.251 334.726 495.831 334.931 500.016 332.929C503.504 330.9 503.503 327.306 500.014 325.021C496.526 322.737 490.248 322.506 486.76 324.534Z" fill="#33B275"/>
<path d="M491.647 305.162C491.648 305.906 491.648 305.906 491.647 305.162C491.648 305.906 491.648 305.906 491.647 305.162C491.648 305.906 491.648 305.906 491.647 305.162C491.648 305.906 491.648 305.906 491.647 305.162C491.648 305.906 492.367 305.932 491.647 305.162C492.367 305.932 492.367 305.932 493.087 305.958L493.806 305.985L494.526 306.011L495.245 306.037C495.965 306.064 495.965 305.319 495.965 305.319L495.971 327.647C495.971 327.647 495.971 328.391 495.251 328.365C495.251 328.365 495.251 328.365 494.532 328.338L491.647 305.162Z" fill="black"/>
<path d="M492.48 304.418C491.781 305.101 491.782 305.818 492.481 306.569C493.181 307.321 494.58 307.389 495.279 306.706C495.977 306.023 495.977 305.306 495.277 304.555C494.577 303.804 493.178 303.735 492.48 304.418Z" fill="#33B275"/>
<path d="M473.656 299.712C474.373 298.986 475.808 299.026 476.525 299.791C477.243 299.811 477.242 300.556 477.242 300.556L477.229 322.924C477.229 322.924 477.229 323.67 476.511 323.65C476.511 323.65 476.511 323.65 475.794 323.63L475.807 301.262C472.938 300.437 472.938 299.692 473.656 299.712ZM472.937 301.183C472.938 300.437 472.938 300.437 472.937 301.183C472.938 300.437 472.938 300.437 472.937 301.183Z" fill="#33B275"/>
<path d="M466.088 280.151C466.087 280.893 466.087 280.893 466.087 280.893C466.087 280.893 466.087 280.893 466.789 281.654C466.789 281.654 466.789 281.654 467.492 281.674C468.194 281.693 468.194 282.435 468.896 282.455C469.598 282.474 469.598 282.474 470.3 283.236C471.003 283.255 471.003 283.255 471.705 283.275C472.408 283.295 472.408 283.295 473.11 283.314C473.812 283.334 473.812 283.334 474.515 283.354C475.217 283.373 475.217 283.373 475.919 283.393C476.622 283.413 476.622 283.413 477.325 282.691C478.027 282.71 478.027 281.969 478.73 281.989C480.838 280.564 481.54 279.842 481.541 278.359L481.528 303.573C481.527 305.056 480.824 306.52 478.716 307.202C478.014 307.183 478.013 307.924 477.311 307.905L476.609 307.885C476.609 307.885 476.609 307.885 475.906 307.865L475.204 307.846L474.502 307.826C474.502 307.826 474.502 307.826 473.799 307.806C473.097 307.787 473.097 307.787 473.097 307.787L472.394 307.767L471.692 307.747C471.692 307.747 471.692 307.747 470.99 307.728C470.99 307.728 470.99 307.728 470.287 307.708C470.287 307.708 470.287 307.708 469.585 307.688C468.883 307.669 468.883 306.927 468.181 306.907C468.181 306.907 468.181 306.907 467.479 306.146L466.088 280.151C466.088 279.41 466.088 280.151 466.088 280.151Z" fill="black"/>
<path d="M468.996 275.714C465.509 277.742 465.51 281.336 468.998 283.621C472.487 285.906 478.068 286.111 482.252 284.109C485.74 282.081 485.739 278.486 482.25 276.201C478.064 273.891 472.484 273.686 468.996 275.714Z" fill="#33B275"/>
<path d="M473.184 257.077C473.904 257.104 473.904 257.104 473.184 257.077C473.904 257.104 473.904 257.104 473.184 257.077C473.904 257.104 473.904 257.104 473.184 257.077C473.904 257.104 473.904 257.848 473.184 257.077C473.904 257.848 473.904 257.848 473.184 257.077C473.904 257.848 473.904 257.848 474.624 257.874L475.345 257.901L476.065 257.927L476.785 257.953C477.505 257.98 477.505 257.235 477.505 257.235L477.511 279.565C477.511 279.565 477.511 280.309 476.791 280.283C476.791 280.283 476.791 280.283 476.071 280.257L473.184 257.077C473.184 256.333 473.184 256.333 473.184 257.077Z" fill="black"/>
<path d="M474.025 255.612C473.328 256.279 473.328 256.979 474.026 257.012C474.724 257.744 476.119 257.81 476.816 257.143C477.513 256.476 477.513 255.776 476.815 255.743C476.118 255.71 474.722 255.645 474.025 255.612Z" fill="#33B275"/>
<path d="M422.156 314.023C422.874 313.297 424.309 313.337 425.026 314.102C425.743 314.122 425.743 314.868 425.743 314.868L425.73 337.236C425.73 337.236 425.729 337.981 425.012 337.961C425.012 337.961 425.012 337.961 424.294 337.941L424.307 315.574C421.438 314.749 421.438 314.749 422.156 314.023ZM421.437 316.24C421.438 315.494 421.438 315.494 421.437 316.24C421.438 315.494 421.438 315.494 421.437 316.24ZM425.742 315.613C425.742 315.613 425.742 316.359 425.742 315.613C425.742 316.359 425.742 315.613 425.742 315.613Z" fill="#33B275"/>
<path d="M414.588 294.461C414.588 294.461 414.588 295.203 414.588 294.461C414.588 295.203 414.588 295.203 414.588 294.461C414.588 295.203 414.588 295.203 414.588 295.203C414.588 295.203 414.588 295.203 415.29 295.964C415.29 295.964 415.29 295.964 415.992 295.984C416.695 296.004 416.694 296.745 417.397 296.765C418.099 296.785 418.099 296.785 418.801 297.546C419.503 297.565 419.503 297.565 420.206 297.585C420.908 297.605 420.908 297.605 421.611 297.625C422.313 297.644 422.313 297.644 423.015 297.664C423.718 297.684 423.718 297.684 424.42 297.703C425.122 297.723 425.122 297.723 425.825 297.001C426.528 297.021 426.528 296.279 427.23 296.299C429.338 294.875 430.041 294.153 430.042 292.669L430.028 317.883C430.027 319.366 429.324 320.83 427.217 321.513C426.514 321.493 426.514 322.234 425.812 322.215L425.109 322.195C425.109 322.195 425.109 322.195 424.407 322.175L423.705 322.156L423.002 322.136C423.002 322.136 423.002 322.136 422.3 322.116L421.597 322.097L420.895 322.077L420.193 322.057C420.193 322.057 420.193 322.057 419.49 322.038C419.49 322.038 419.49 322.038 418.788 322.018C418.788 322.018 418.788 322.018 418.086 321.998C417.383 321.979 417.384 321.237 416.681 321.218C416.681 321.218 416.681 321.218 415.979 320.456L414.588 294.461Z" fill="black"/>
<path d="M417.497 290.025C414.009 292.053 414.01 295.647 417.499 297.932C420.987 300.217 426.568 300.422 430.753 298.42C434.24 296.392 434.239 292.797 430.751 290.512C426.565 288.202 420.984 287.997 417.497 290.025Z" fill="#33B275"/>
<path d="M421.684 271.391C421.685 272.136 422.404 272.162 421.684 271.391C422.404 272.162 422.404 272.162 421.684 271.391C422.404 272.162 422.404 272.162 421.684 271.391C422.404 272.162 422.404 272.162 421.684 271.391C422.404 272.162 422.404 272.162 421.684 271.391C422.404 272.162 422.404 272.162 423.124 272.188L423.843 272.215L424.563 272.241L425.282 272.267C426.002 272.294 426.002 271.549 426.002 271.549L426.008 293.877C426.008 293.877 426.008 294.621 425.288 294.594C425.288 294.594 425.288 294.594 424.569 294.568L421.684 271.391Z" fill="black"/>
<path d="M422.521 270.642C421.823 271.318 421.824 272.027 422.522 272.06C423.221 272.803 424.618 272.87 425.316 272.194C426.013 271.519 426.013 270.81 425.314 270.776C424.615 270.034 423.219 269.967 422.521 270.642Z" fill="#33B275"/>
<path d="M353.241 222.696C353.959 221.971 355.394 222.01 356.111 222.776C356.828 222.796 356.828 223.541 356.828 223.541L356.814 245.909C356.814 245.909 356.814 246.654 356.097 246.635C356.097 246.635 356.097 246.635 355.379 246.615L355.392 224.247C352.523 223.422 352.523 223.422 353.241 222.696ZM352.522 224.913C353.24 224.933 353.24 224.933 352.522 224.913C353.24 224.933 353.24 224.933 352.522 224.913Z" fill="#33B275"/>
<path d="M345.673 203.135C345.673 203.877 345.673 203.877 345.673 203.135C345.673 203.877 345.673 203.877 345.673 203.877C345.673 203.877 345.673 203.877 346.375 204.638C346.375 204.638 346.375 204.638 347.077 204.658C347.779 204.677 347.779 205.419 348.481 205.438C349.184 205.458 349.184 205.458 349.886 206.219C350.588 206.239 350.588 206.239 351.29 206.259C351.993 206.278 351.993 206.278 352.695 206.298C353.398 206.318 353.398 206.318 354.1 206.337C354.802 206.357 354.802 206.357 355.505 206.377C356.207 206.396 356.207 206.396 356.91 205.675C357.612 205.694 357.613 204.953 358.315 204.972C360.423 203.548 361.126 202.826 361.126 201.343L361.113 226.557C361.112 228.04 360.409 229.504 358.301 230.186C357.599 230.167 357.599 230.908 356.896 230.888L356.194 230.869C356.194 230.869 356.194 230.869 355.492 230.849L354.789 230.829L354.087 230.81C354.087 230.81 354.087 230.81 353.384 230.79L352.682 230.77L351.98 230.751L351.277 230.731C351.277 230.731 351.277 230.731 350.575 230.711C350.575 230.711 350.575 230.711 349.873 230.692C349.873 230.692 349.873 230.692 349.17 230.672C348.468 230.652 348.468 229.911 347.766 229.891C347.766 229.891 347.766 229.891 347.064 229.13L345.673 203.135Z" fill="black"/>
<path d="M348.581 198.698C345.094 200.726 345.095 204.321 348.583 206.606C352.072 208.89 357.653 209.096 361.838 207.093C365.325 205.065 365.324 201.47 361.836 199.186C357.65 196.875 352.069 196.67 348.581 198.698Z" fill="#33B275"/>
<path d="M352.769 180.065C352.77 180.809 352.77 180.809 352.769 180.065C352.77 180.809 353.489 180.835 352.769 180.065C353.489 180.835 353.489 180.835 352.769 180.065C353.489 180.835 353.489 180.835 352.769 180.065C353.489 180.835 353.489 180.835 354.209 180.862L354.928 180.888L355.648 180.914L356.367 180.941C357.087 180.967 357.087 180.223 357.087 180.223L357.093 202.55C357.093 202.55 357.093 203.294 356.373 203.268C356.373 203.268 356.373 203.268 355.654 203.241L352.769 180.065Z" fill="black"/>
<path d="M353.605 179.315C352.907 179.99 352.908 180.7 353.606 180.733C354.305 181.476 355.702 181.543 356.4 180.867C357.097 180.191 357.097 179.482 356.398 179.449C355.699 178.706 354.303 178.639 353.605 179.315Z" fill="#33B275"/>
<path d="M557.995 465.242L558.03 491.909C558.031 492.649 558.031 492.649 558.756 492.695C559.482 493.482 561.657 493.621 562.381 492.927C563.106 492.973 563.106 492.973 563.105 492.232L563.069 465.566C563.07 466.307 563.07 466.307 562.346 467.001C561.622 467.696 559.448 467.557 558.722 466.77C557.996 465.983 557.996 465.983 557.995 465.242Z" fill="#20995C"/>
<path d="M558.687 466.746L558.725 493.607L559.624 493.67L558.687 466.746Z" fill="#20995C"/>
<path d="M558.687 466.746L558.725 493.607C558.725 493.607 558.725 493.607 559.624 493.67L558.687 466.746C559.585 466.808 559.585 466.808 558.687 466.746Z" fill="#20995C"/>
<path d="M560.084 466.763L560.115 493.654L560.084 466.763C561.22 466.827 560.084 466.763 560.084 466.763Z" fill="#20995C"/>
<path d="M560.773 466.772L560.81 493.647L560.773 466.772C561.737 466.834 561.737 466.834 560.773 466.772Z" fill="#20995C"/>
<path d="M561.462 466.776L561.504 493.59C561.504 493.59 561.504 493.59 562.309 493.652C563.112 492.969 563.112 492.97 563.111 492.225L563.068 465.41C563.07 466.155 562.265 466.093 561.462 466.776C562.266 466.838 561.462 466.776 561.462 466.776Z" fill="#20995C"/>
<path d="M558.887 464.492C558.189 465.147 558.19 465.845 558.89 466.586C559.589 467.327 561.685 467.456 562.383 466.802C563.081 466.147 563.08 465.449 562.38 464.708C560.982 463.923 559.585 463.837 558.887 464.492Z" fill="#20995C"/>
<path d="M551.265 421.775C551.265 422.519 551.265 422.519 551.265 422.519C551.265 422.519 551.265 422.519 551.972 423.282C551.972 423.282 551.972 423.282 552.678 423.302C553.385 423.322 553.385 424.066 554.092 424.085C554.092 424.085 554.092 424.085 554.799 424.105L555.506 424.124L556.212 424.144C556.919 424.164 556.919 424.164 557.626 424.183C558.333 424.203 559.04 424.223 559.04 424.223C559.747 424.242 560.454 424.262 560.454 424.262C561.161 424.281 561.161 424.281 561.867 424.301C562.574 424.321 562.574 424.321 563.282 423.596C563.989 423.616 563.989 422.872 564.696 422.892C566.817 421.463 567.525 419.995 567.526 418.507L567.501 463.14C567.5 464.627 566.792 466.095 564.67 467.524C563.964 467.505 563.963 468.249 563.256 468.229L562.549 468.209C562.549 468.209 562.549 468.209 561.843 468.19L561.136 468.17L560.429 468.15C560.429 468.15 560.429 468.15 559.722 468.131C559.015 468.111 559.015 468.111 558.308 468.092L557.601 468.072C557.601 468.072 557.601 468.072 556.894 468.052L556.187 468.033C556.187 468.033 556.187 468.033 555.481 468.013C555.481 468.013 555.481 468.013 554.774 467.993C554.774 467.993 554.774 467.993 554.067 467.974C553.36 467.954 553.36 467.21 552.653 467.191C552.653 467.191 552.653 467.191 551.947 466.427L551.265 421.775C551.266 421.031 551.266 421.031 551.265 421.775Z" fill="#0A7C47"/>
<path d="M554.277 417.321C550.789 419.354 550.79 422.956 554.279 425.245C557.769 427.533 564.048 427.763 567.536 425.73C571.024 423.697 571.023 420.096 567.534 417.807C564.045 414.798 558.463 414.593 554.277 417.321Z" fill="#07AF5A"/>
<path d="M558.455 394.963L558.462 421.765C558.462 422.509 558.462 422.509 559.183 422.535C559.905 423.306 562.068 423.385 562.789 422.666C563.511 422.693 563.511 421.948 563.51 421.204L563.503 394.403C563.504 395.147 563.504 395.147 562.782 395.121C562.061 395.839 559.897 395.76 559.176 394.99C559.176 395.734 558.455 395.708 558.455 394.963Z" fill="#0A7C47"/>
<path d="M558.464 395.714L558.467 422.617L558.464 395.714C559.536 395.751 558.464 395.714 558.464 395.714Z" fill="#0A7C47"/>
<path d="M559.147 395.723L559.161 422.611L560.036 422.647L559.147 395.723C560.022 396.505 560.022 396.505 559.147 395.723C559.147 396.47 559.147 395.723 559.147 395.723Z" fill="#0A7C47"/>
<path d="M559.836 396.479L559.851 423.367C559.851 423.367 559.851 423.367 560.725 423.403L559.836 396.479C560.71 396.515 559.836 396.479 559.836 396.479Z" fill="#0A7C47"/>
<path d="M561.238 396.497L561.24 423.399L561.238 396.497C562.309 396.533 561.238 396.497 561.238 396.497Z" fill="#0A7C47"/>
<path d="M561.924 396.505L561.935 423.4L561.924 396.505C562.854 396.541 562.854 396.541 561.924 396.505Z" fill="#0A7C47"/>
<path d="M562.609 396.511L562.63 423.375C562.63 423.375 562.63 423.375 563.423 423.41C564.215 423.445 564.214 422.699 564.214 421.952L564.192 395.088C563.4 395.799 563.401 395.799 562.609 396.511Z" fill="#0A7C47"/>
<path d="M559.32 394.223C558.622 394.92 558.622 395.643 559.321 396.392C560.019 397.141 562.113 397.218 562.811 396.521C563.509 395.823 563.509 395.1 562.811 394.351C562.112 393.602 560.716 393.551 559.32 394.223Z" fill="#07AF5A"/>
<path d="M509.727 405.575L509.763 432.239C509.764 432.98 509.764 432.98 510.489 433.026C511.215 433.813 513.39 433.953 514.114 433.258C514.839 433.305 514.838 432.564 514.838 432.564L514.802 405.9C514.803 406.641 514.803 406.641 514.078 406.595C513.354 407.289 511.179 407.149 510.453 406.362C510.453 406.362 509.728 406.316 509.727 405.575Z" fill="#07AF5A"/>
<path d="M510.419 407.078L510.459 433.939L511.358 434.002L510.419 407.078C511.319 407.141 510.419 407.078 510.419 407.078Z" fill="#20995C"/>
<path d="M511.114 407.087L511.153 433.947C511.153 433.947 511.153 433.947 512.053 434.01L511.114 407.087Z" fill="#20995C"/>
<path d="M512.512 407.104L512.543 433.995L512.512 407.104C513.648 407.168 512.512 407.104 512.512 407.104Z" fill="#20995C"/>
<path d="M513.201 407.113L513.238 433.987L513.201 407.113C514.165 407.176 514.165 407.176 513.201 407.113Z" fill="#20995C"/>
<path d="M513.891 407.118L513.932 433.929C513.932 433.929 513.932 433.929 514.734 433.992C515.535 434.055 515.534 433.311 515.534 433.311L515.493 406.5C514.691 406.437 514.691 406.437 513.891 407.118Z" fill="#20995C"/>
<path d="M510.619 404.824C509.922 405.478 509.922 406.176 510.622 406.917C511.322 407.658 513.418 407.789 514.116 407.134C514.813 406.48 514.812 405.782 514.113 405.041C513.413 404.3 512.016 404.214 510.619 404.824Z" fill="#20995C"/>
<path d="M503.693 362.116C503.693 362.86 503.693 362.86 503.693 362.86C503.693 362.86 503.693 362.86 504.399 363.624C504.399 363.624 504.399 363.624 505.106 363.643C505.813 363.663 505.813 364.407 506.519 364.426C506.519 364.426 506.519 364.426 507.226 364.446L507.933 364.466L508.64 364.485C509.347 364.505 509.347 364.505 510.054 364.524C510.761 364.544 511.468 364.564 511.468 364.564C512.175 364.583 512.881 364.603 512.881 364.603C513.588 364.623 513.588 364.623 514.295 364.642C515.002 364.662 515.002 364.662 515.709 363.938C516.416 363.957 516.417 363.213 517.124 363.233C519.245 361.804 519.953 360.336 519.954 358.848L519.928 403.481C519.927 404.968 519.22 406.437 517.098 407.865C516.391 407.846 516.391 408.59 515.684 408.57L514.977 408.55C514.977 408.55 514.977 408.55 514.27 408.531L513.563 408.511L512.856 408.492C512.856 408.492 512.856 408.492 512.15 408.472C511.443 408.452 511.443 408.452 510.736 408.433L510.029 408.413C510.029 408.413 510.029 408.413 509.322 408.393L508.615 408.374C508.615 408.374 508.615 408.374 507.908 408.354C507.908 408.354 507.908 408.354 507.201 408.335C507.201 408.335 507.201 408.335 506.495 408.315C505.788 408.295 505.788 407.551 505.081 407.532C505.081 407.532 505.081 407.532 504.375 406.768L503.693 362.116Z" fill="#0A7C47"/>
<path d="M506.705 357.682C503.217 359.712 503.218 363.307 506.707 365.592C510.195 367.876 516.473 368.105 519.961 366.075C523.448 364.044 523.447 360.449 519.959 358.165C516.47 355.88 510.192 355.651 506.705 357.682Z" fill="#07AF5A"/>
<path d="M510.884 335.308L510.89 362.107C510.891 362.851 510.891 362.851 511.611 362.878C512.332 363.648 514.494 363.727 515.214 363.009C515.935 363.035 515.934 362.291 515.934 362.291L515.928 335.492C515.928 336.236 515.928 336.236 515.208 336.954C514.487 337.673 512.325 337.594 511.605 336.823C510.884 336.053 510.884 336.053 510.884 335.308Z" fill="#0A7C47"/>
<path d="M510.883 336.056L510.894 362.951L510.883 336.056C511.813 336.839 511.813 336.091 510.883 336.056Z" fill="#0A7C47"/>
<path d="M511.569 336.812L511.583 363.701C511.583 363.701 511.583 363.701 512.458 363.736L511.569 336.812Z" fill="#0A7C47"/>
<path d="M512.264 336.821L512.279 363.71C512.279 363.71 512.279 363.71 513.153 363.745L512.264 336.821Z" fill="#0A7C47"/>
<path d="M512.268 336.821L512.278 363.716L512.268 336.821C513.197 336.857 513.197 336.857 512.268 336.821Z" fill="#0A7C47"/>
<path d="M513.666 336.838L513.668 363.741L513.666 336.838C514.737 336.875 513.666 336.838 513.666 336.838Z" fill="#0A7C47"/>
<path d="M514.344 336.845L514.363 363.709C514.363 363.709 514.363 363.709 515.153 363.744C515.943 363.78 515.942 363.033 515.942 363.033L515.924 336.17C515.924 336.17 515.924 336.17 514.344 336.845C515.134 336.88 515.134 336.88 514.344 336.845Z" fill="#0A7C47"/>
<path d="M511.748 334.563C511.05 335.261 511.05 335.984 511.748 336.733C512.446 337.482 514.541 337.559 515.239 336.861C515.937 336.164 515.936 335.44 515.238 334.692C514.54 333.943 512.445 333.866 511.748 334.563Z" fill="#07AF5A"/>
<path d="M445.644 319.539L445.678 346.206C445.679 346.946 445.679 346.946 446.404 346.993C447.13 347.78 449.305 347.919 450.029 347.225C450.754 347.271 450.753 346.53 450.753 346.53L450.718 319.864C450.719 320.604 450.719 320.604 449.995 321.299C449.271 321.993 447.096 321.854 446.37 321.067C445.645 320.28 445.644 319.539 445.644 319.539Z" fill="#07AF5A"/>
<path d="M445.654 320.289L445.685 347.18L445.654 320.289C446.789 320.352 445.654 320.289 445.654 320.289Z" fill="#20995C"/>
<path d="M446.34 320.297L446.379 347.159L447.278 347.221L446.34 320.297C446.341 321.044 446.34 320.297 446.34 320.297Z" fill="#20995C"/>
<path d="M447.03 321.054L447.068 347.915C447.068 347.915 447.068 347.915 447.967 347.978L447.03 321.054Z" fill="#20995C"/>
<path d="M447.038 321.054L447.068 347.945L447.038 321.054C448.173 321.117 447.038 321.054 447.038 321.054Z" fill="#20995C"/>
<path d="M449.112 321.074L449.153 347.887C449.153 347.887 449.153 347.887 449.956 347.95C450.758 348.012 450.757 347.268 450.757 347.268L450.716 320.455C450.715 319.71 450.716 320.454 449.112 321.074C449.913 320.392 449.913 320.392 449.112 321.074Z" fill="#20995C"/>
<path d="M446.54 318.08C445.843 318.727 445.844 319.416 446.542 320.148C447.241 320.88 449.335 321.007 450.033 320.36C450.73 319.713 450.729 319.023 450.03 318.291C449.332 318.249 447.238 318.122 446.54 318.08Z" fill="#20995C"/>
<path d="M438.919 275.327C439.626 275.347 439.625 276.09 438.919 275.327C439.625 276.09 439.625 276.09 438.919 275.327C438.918 276.071 438.918 276.071 438.918 276.071C438.918 276.071 438.918 276.071 439.625 276.834C439.625 276.834 439.625 276.834 440.332 276.854C441.039 276.874 441.038 277.617 441.745 277.637C441.745 277.637 441.745 277.637 442.452 277.657L443.159 277.676L443.866 277.696C444.573 277.716 444.573 277.716 445.279 277.735C445.986 277.755 446.693 277.774 446.693 277.774C447.4 277.794 447.4 277.794 448.107 277.814C448.814 277.833 448.814 277.833 449.521 277.853C450.228 277.873 450.228 277.873 450.935 277.148C451.642 277.168 451.642 276.424 452.349 276.444C454.471 275.015 455.178 273.547 455.179 272.059L455.154 316.691C455.153 318.179 454.445 319.647 452.324 321.076C451.617 321.057 451.616 321.8 450.91 321.781L450.203 321.761C450.203 321.761 450.203 321.761 449.496 321.742L448.789 321.722L448.082 321.702C448.082 321.702 448.082 321.702 447.375 321.683C446.668 321.663 446.668 321.663 445.961 321.643L445.255 321.624L444.548 321.604C444.548 321.604 444.548 321.604 443.841 321.585C443.841 321.585 443.841 321.585 443.134 321.565C443.134 321.565 443.134 321.565 442.427 321.545C441.72 321.526 441.721 320.782 441.014 320.762C441.014 320.762 441.014 320.762 440.307 319.999L438.919 275.327Z" fill="#0A7C47"/>
<path d="M441.93 270.89C438.443 272.92 438.444 276.515 441.932 278.8C445.421 281.085 451.699 281.314 455.186 279.284C458.674 277.255 458.673 273.659 455.185 271.375C451.696 269.09 446.115 268.886 441.93 270.89Z" fill="#07AF5A"/>
<path d="M446.105 249.264L446.112 276.065C446.112 276.81 446.112 276.81 446.833 276.836C447.555 277.606 449.719 277.685 450.44 276.966C451.161 276.993 451.161 276.248 451.161 275.504L451.154 248.702C451.154 249.447 451.154 249.447 450.432 249.421C449.711 250.139 447.548 250.06 446.826 249.29C446.826 250.034 446.105 249.264 446.105 249.264Z" fill="#0A7C47"/>
<path d="M446.105 249.267L446.994 276.191L446.105 249.267Z" fill="#0A7C47"/>
<path d="M446.796 250.023L446.81 276.911C446.81 276.911 446.81 276.911 447.684 276.947L446.796 250.023C447.67 250.058 447.67 250.058 446.796 250.023Z" fill="#0A7C47"/>
<path d="M447.485 250.78L447.499 277.669C447.499 277.669 447.499 277.669 448.374 277.704L447.485 250.78C448.359 250.816 447.485 250.78 447.485 250.78Z" fill="#0A7C47"/>
<path d="M448.183 250.789L448.194 277.684L448.183 250.789C449.112 250.825 449.112 250.825 448.183 250.789Z" fill="#0A7C47"/>
<path d="M449.582 250.806L449.584 277.709L449.582 250.806C450.653 250.842 449.582 250.806 449.582 250.806Z" fill="#0A7C47"/>
<path d="M450.266 250.065L450.283 276.944C451.114 276.979 451.114 276.233 451.113 275.486L451.096 248.607C451.927 249.388 451.096 250.1 450.266 250.065Z" fill="#0A7C47"/>
<path d="M446.973 247.775C446.276 248.472 446.276 249.195 446.974 249.944C447.672 250.693 449.767 250.77 450.465 250.073C451.163 249.375 451.162 248.652 450.464 247.903C449.766 247.154 448.37 247.103 446.973 247.775Z" fill="#07AF5A"/>
<path d="M396.039 364.531L396.075 391.194C396.076 391.935 396.076 391.935 396.801 391.981C397.527 392.769 399.702 392.908 400.426 392.214C401.151 392.261 401.15 391.52 401.15 391.52L401.114 364.857C401.115 365.598 401.115 365.598 400.391 366.292C399.667 366.986 397.492 366.846 396.766 366.059C396.765 365.318 396.04 365.272 396.039 364.531Z" fill="#20995C"/>
<path d="M396.05 365.278L396.081 392.169L396.05 365.278C397.186 365.342 396.05 365.278 396.05 365.278Z" fill="#20995C"/>
<path d="M396.736 365.287L396.775 392.148L397.675 392.211L396.736 365.287C397.637 366.096 397.637 366.096 396.736 365.287Z" fill="#20995C"/>
<path d="M397.425 366.044L397.465 392.905C397.465 392.905 397.465 392.905 398.364 392.968L397.425 366.044C398.325 366.107 397.425 366.044 397.425 366.044Z" fill="#20995C"/>
<path d="M398.128 366.053L398.16 392.943L398.128 366.053C399.265 366.117 398.128 366.053 398.128 366.053Z" fill="#20995C"/>
<path d="M398.817 366.061L398.854 392.935L398.817 366.061C399.782 366.125 399.782 366.125 398.817 366.061Z" fill="#20995C"/>
<path d="M400.202 366.074L400.244 392.884C400.244 392.884 400.244 392.884 401.046 392.948C401.848 393.011 401.846 392.267 401.846 392.267L401.805 365.456C401.805 365.456 401.003 365.393 400.202 366.074Z" fill="#20995C"/>
<path d="M396.932 363.78C396.234 364.434 396.235 365.132 396.934 365.873C397.634 366.614 399.73 366.744 400.428 366.09C401.126 365.436 401.125 364.739 400.425 363.998C399.726 363.257 398.328 363.17 396.932 363.78Z" fill="#20995C"/>
<path d="M389.989 320.342C389.989 321.085 389.989 321.085 389.989 320.342C389.989 321.085 389.989 321.085 389.989 320.342C389.989 321.085 389.989 321.085 389.989 321.085C389.989 321.085 389.989 321.085 390.693 321.848C390.693 321.848 390.693 321.848 391.398 321.868C392.104 321.888 392.103 322.631 392.808 322.65C392.808 322.65 392.808 322.65 393.513 322.67L394.218 322.69L394.924 322.709C395.629 322.729 395.629 322.729 396.334 322.749C397.039 322.768 397.744 322.788 397.744 322.788C398.449 322.808 399.154 322.827 399.154 322.827C399.859 322.847 399.859 322.847 400.564 322.866C404.088 325.937 404.088 325.937 404.793 325.957C405.498 325.977 405.499 325.234 406.204 325.253C408.32 323.826 409.026 322.359 409.027 320.872L409.002 365.466C409.001 366.952 408.295 368.419 406.179 369.847C405.473 369.827 405.473 370.57 404.768 370.551L404.063 370.531C404.063 370.531 404.063 370.531 403.358 370.511L402.653 370.492L401.948 370.472C401.948 370.472 401.948 370.472 401.242 370.453C401.242 370.453 400.537 370.433 399.832 370.413L399.127 370.394C399.127 370.394 399.127 370.394 398.422 370.374L397.717 370.354C397.717 370.354 397.717 370.354 397.012 370.335C397.012 370.335 397.012 370.335 396.307 370.315C396.307 370.315 396.307 370.315 395.602 370.296C394.897 370.276 394.897 369.533 394.192 369.513C394.192 369.513 394.192 369.513 393.487 368.75L389.989 320.342Z" fill="#0A7C47"/>
<path d="M393.022 315.891C389.534 317.921 389.535 321.516 393.024 323.8C396.512 326.085 402.791 326.314 406.278 324.284C409.765 322.254 409.764 318.658 406.276 316.374C402.787 314.089 396.509 313.861 393.022 315.891Z" fill="#07AF5A"/>
<path d="M397.195 294.261L397.202 321.062C397.202 321.806 397.202 321.806 397.923 321.833C398.645 322.603 400.808 322.682 401.529 321.964C402.251 321.99 402.251 321.246 402.25 320.501L402.243 293.7C402.244 294.444 402.244 294.444 401.523 295.163C400.801 295.881 398.638 295.802 397.916 295.032C397.195 295.005 397.195 294.261 397.195 294.261Z" fill="#0A7C47"/>
<path d="M397.195 295.012L397.207 321.906L397.195 295.012C398.125 295.047 398.125 295.047 397.195 295.012Z" fill="#0A7C47"/>
<path d="M397.887 295.02L397.901 321.908L398.776 321.944L397.887 295.02C397.887 295.767 397.887 295.767 397.887 295.02Z" fill="#0A7C47"/>
<path d="M398.576 295.777L398.59 322.665C398.59 322.665 398.59 322.665 399.465 322.701L398.576 295.777Z" fill="#0A7C47"/>
<path d="M398.579 295.777L398.59 322.671L398.579 295.777C399.509 295.813 399.509 295.813 398.579 295.777Z" fill="#0A7C47"/>
<path d="M399.283 295.786L399.285 322.688L399.283 295.786C400.354 295.822 399.283 295.786 399.283 295.786Z" fill="#0A7C47"/>
<path d="M399.969 295.794L399.98 322.689L399.969 295.794C400.899 295.83 400.899 295.83 399.969 295.794Z" fill="#0A7C47"/>
<path d="M401.349 295.808L401.37 322.673C401.37 322.673 401.37 322.673 402.162 322.708C402.955 322.743 402.954 321.997 402.954 321.25L402.933 294.385C402.14 294.351 402.141 295.097 401.349 295.808C401.348 295.062 401.349 295.808 401.349 295.808Z" fill="#0A7C47"/>
<path d="M398.064 292.79C397.367 293.484 397.367 294.202 398.065 294.947C398.763 295.691 400.855 295.767 401.553 295.073C402.25 294.38 402.25 293.661 401.552 292.917C400.854 292.892 398.762 292.816 398.064 292.79Z" fill="#20995C"/>
<path d="M374.939 293.231L374.975 319.902C374.976 320.642 374.976 320.642 375.702 320.689C376.428 321.476 378.606 321.615 379.33 320.921C380.056 320.967 380.055 320.227 380.054 319.486L380.019 292.815C380.02 293.556 380.02 293.556 379.294 293.51C378.569 294.204 376.392 294.065 375.665 293.278C374.941 294.713 374.94 293.972 374.939 293.231Z" fill="#20995C"/>
<path d="M375.632 294.741L375.671 321.602L376.57 321.665L375.632 294.741C376.531 294.804 375.632 294.741 375.632 294.741Z" fill="#20995C"/>
<path d="M376.326 294.751L376.365 321.612C376.365 321.612 376.365 321.612 377.264 321.675L376.326 294.751Z" fill="#20995C"/>
<path d="M377.019 295.507L377.056 322.381L377.019 295.507C377.983 295.57 377.983 295.57 377.019 295.507Z" fill="#20995C"/>
<path d="M377.717 294.768L377.754 321.642L377.717 294.768C378.682 294.831 378.682 294.831 377.717 294.768Z" fill="#20995C"/>
<path d="M378.418 294.777L378.449 321.668L378.418 294.777C379.555 294.841 378.418 294.777 378.418 294.777Z" fill="#20995C"/>
<path d="M379.103 294.779L379.144 321.592C379.144 321.592 379.144 321.592 379.949 321.655C380.753 321.718 380.752 320.973 380.751 320.228L380.709 293.415C379.906 294.097 379.907 294.842 379.103 294.779Z" fill="#20995C"/>
<path d="M375.832 292.488C375.134 293.142 375.135 293.84 375.834 294.581C376.534 295.322 378.63 295.452 379.328 294.798C380.026 294.144 380.025 293.446 379.325 292.705C378.625 291.964 377.228 291.877 375.832 292.488Z" fill="#20995C"/>
<path d="M368.905 249.78C368.905 250.524 368.905 250.524 368.905 250.524C368.905 250.524 368.905 250.524 369.611 251.287C369.611 251.287 369.611 251.287 370.318 251.307C371.025 251.327 371.025 252.07 371.732 252.09C371.732 252.09 371.732 252.09 372.439 252.11L373.145 252.129L373.852 252.149C374.559 252.169 374.559 252.169 375.266 252.188C375.973 252.208 376.68 252.227 376.68 252.227C377.387 252.247 377.387 252.247 378.094 252.267C378.8 252.286 378.8 252.286 379.507 252.306C380.214 252.326 380.214 252.326 380.922 251.601C381.628 251.621 381.629 250.877 382.336 250.897C384.457 249.468 385.165 248 385.166 246.512L385.14 291.144C385.14 292.632 384.432 294.1 382.31 295.529C381.603 295.51 381.603 296.253 380.896 296.234L380.189 296.214C380.189 296.214 380.189 296.214 379.482 296.195L378.776 296.175C378.776 296.175 378.776 296.175 378.069 296.155L377.362 296.136C377.362 296.136 377.362 296.136 376.655 296.116C375.948 296.096 375.948 296.096 375.241 296.077L374.534 296.057L373.827 296.038C373.827 296.038 373.827 296.038 373.12 296.018C373.12 296.018 373.12 296.018 372.414 295.998C372.414 295.998 372.414 295.998 371.707 295.979C371 295.959 371 295.215 370.293 295.196C370.293 295.196 370.293 295.196 369.587 294.432L368.905 249.78Z" fill="#0A7C47"/>
<path d="M371.917 245.344C368.43 247.374 368.43 250.969 371.919 253.254C375.407 255.539 381.686 255.769 385.173 253.739C388.66 251.709 388.66 248.114 385.171 245.829C381.683 243.544 375.404 243.315 371.917 245.344Z" fill="#07AF5A"/>
<path d="M376.096 222.968L376.102 249.77C376.102 250.514 376.102 250.514 376.823 250.541C377.545 251.311 379.708 251.39 380.43 250.672C381.151 250.698 381.151 249.954 381.15 249.209L381.144 222.407C381.144 223.152 381.144 223.152 380.423 223.125C379.702 223.844 377.538 223.765 376.817 222.994C376.096 223.712 376.096 223.712 376.096 222.968Z" fill="#0A7C47"/>
<path d="M376.782 224.476L376.796 251.364L377.67 251.399L376.782 224.476Z" fill="#0A7C47"/>
<path d="M377.476 224.484L377.491 251.373C377.491 251.373 377.491 251.373 378.365 251.408L377.476 224.484Z" fill="#0A7C47"/>
<path d="M378.175 224.493L378.186 251.388L378.175 224.493C379.104 224.528 379.104 224.528 378.175 224.493Z" fill="#0A7C47"/>
<path d="M378.87 224.502L378.88 251.397L378.87 224.502C379.799 224.537 379.799 224.537 378.87 224.502Z" fill="#0A7C47"/>
<path d="M379.555 224.507L379.575 251.373C379.575 251.373 379.575 251.373 380.368 251.407C381.16 251.442 381.159 250.696 381.159 249.949L381.138 223.084C381.139 223.83 381.139 223.83 379.555 224.507C380.347 224.542 379.555 224.507 379.555 224.507Z" fill="#0A7C47"/>
<path d="M376.96 222.228C376.262 222.925 376.262 223.648 376.96 224.397C377.659 225.146 379.753 225.223 380.451 224.525C381.149 223.828 381.148 223.105 380.45 222.356C379.054 221.581 377.658 221.53 376.96 222.228Z" fill="#20995C"/>
<path d="M313.303 261.061L313.339 287.731C313.34 288.471 313.34 288.472 314.066 288.518C314.792 289.305 316.97 289.445 317.695 288.751C318.42 288.797 318.419 288.056 318.418 287.315L318.383 260.646C318.384 261.387 318.384 261.387 317.658 261.34C316.933 262.034 314.756 261.895 314.029 261.107C314.03 261.848 313.304 261.802 313.303 261.061Z" fill="#20995C"/>
<path d="M313.314 261.815L313.345 288.705L313.314 261.815C314.451 261.879 313.314 261.815 313.314 261.815Z" fill="#20995C"/>
<path d="M313.996 262.571L314.035 289.432L314.935 289.495L313.996 262.571C314.895 262.634 314.895 262.634 313.996 262.571Z" fill="#20995C"/>
<path d="M314.689 262.58L314.729 289.441C314.729 289.441 314.729 289.441 315.628 289.504L314.689 262.58C315.589 262.643 314.689 262.58 314.689 262.58Z" fill="#20995C"/>
<path d="M315.386 262.589L315.424 289.463L315.386 262.589C316.351 262.652 316.351 262.652 315.386 262.589Z" fill="#20995C"/>
<path d="M317.466 262.609L317.509 289.422C317.509 289.422 317.509 289.422 318.313 289.484C319.117 289.547 319.116 288.802 319.115 288.057L319.073 261.244C319.074 261.989 318.27 261.926 317.466 262.609Z" fill="#20995C"/>
<path d="M314.196 260.318C313.498 260.972 313.499 261.669 314.198 262.41C314.898 263.151 316.994 263.282 317.692 262.628C318.39 261.974 318.389 261.276 317.689 260.535C316.989 259.794 315.592 259.707 314.196 260.318Z" fill="#20995C"/>
<path d="M307.274 216.861C307.274 217.605 307.274 217.605 307.274 216.861C307.274 217.605 307.274 217.605 307.274 216.861C307.274 217.605 307.274 217.605 307.274 217.605C307.274 217.605 307.274 217.605 307.98 218.369C307.98 218.369 307.98 218.369 308.687 218.388C309.394 218.408 309.394 219.152 310.101 219.172C310.101 219.172 310.101 219.172 310.808 219.191L311.514 219.211L312.221 219.23C312.928 219.25 312.928 219.25 313.635 219.27C314.342 219.289 315.049 219.309 315.049 219.309C315.756 219.329 315.756 219.329 316.463 219.348C317.17 219.368 317.17 219.368 317.876 219.387C318.583 219.407 318.583 219.407 319.291 218.683C319.997 218.702 319.998 217.959 320.705 217.978C322.826 216.549 323.534 215.081 323.535 213.594L323.51 258.226C323.509 259.714 322.801 261.182 320.679 262.611C319.973 262.591 319.972 263.335 319.265 263.315L318.558 263.296C318.558 263.296 318.558 263.296 317.851 263.276L317.145 263.256L316.438 263.237C316.438 263.237 316.438 263.237 315.731 263.217C315.024 263.197 315.024 263.197 314.317 263.178L313.61 263.158L312.903 263.139C312.903 263.139 312.903 263.139 312.196 263.119C312.196 263.119 312.196 263.119 311.489 263.099C311.489 263.099 311.49 263.099 310.783 263.08C310.076 263.06 310.076 262.316 309.369 262.297C309.369 262.297 309.369 262.297 308.663 261.533L307.274 216.861Z" fill="#0A7C47"/>
<path d="M310.286 212.426C306.799 214.456 306.8 218.051 310.288 220.336C313.776 222.621 320.055 222.851 323.542 220.821C327.03 218.792 327.029 215.196 323.54 212.911C320.052 210.626 313.774 210.397 310.286 212.426Z" fill="#07AF5A"/>
<path d="M314.459 190.798L314.466 217.599C314.466 218.344 314.466 218.344 315.187 218.37C315.909 219.141 318.073 219.219 318.794 218.501C319.515 218.527 319.515 217.783 319.515 217.038L319.508 190.237C319.508 190.982 319.508 190.982 318.787 191.7C318.066 192.418 315.902 192.339 315.18 191.569C314.459 191.542 314.459 190.798 314.459 190.798Z" fill="#0A7C47"/>
<path d="M315.151 191.557L315.165 218.445L316.04 218.481L315.151 191.557C316.026 192.339 315.151 192.304 315.151 191.557Z" fill="#0A7C47"/>
<path d="M315.84 192.314L315.855 219.202C315.855 219.202 315.855 219.202 316.729 219.238L315.84 192.314Z" fill="#0A7C47"/>
<path d="M316.538 192.322L316.55 219.217L316.538 192.322C317.468 192.358 317.468 192.358 316.538 192.322Z" fill="#0A7C47"/>
<path d="M317.233 192.331L317.244 219.226L317.233 192.331C318.163 192.367 318.163 192.367 317.233 192.331Z" fill="#0A7C47"/>
<path d="M317.937 192.34L317.939 219.242L317.937 192.34C319.008 192.376 317.937 192.34 317.937 192.34Z" fill="#0A7C47"/>
<path d="M318.613 192.345L318.634 219.21C318.634 219.21 318.634 219.21 319.427 219.245C320.219 219.28 320.219 218.534 320.218 217.787L320.197 190.923C319.405 190.888 319.405 191.634 318.613 192.345C318.613 191.599 318.613 192.345 318.613 192.345Z" fill="#0A7C47"/>
<path d="M315.328 189.327C314.631 190.021 314.631 190.739 315.329 191.484C316.027 192.228 318.119 192.304 318.817 191.611C319.514 190.917 319.514 190.198 318.816 189.454C318.119 189.429 316.026 189.353 315.328 189.327Z" fill="#20995C"/>
<path d="M254.714 185.569L254.749 212.236C254.749 212.977 254.749 212.977 255.474 213.023C256.2 213.81 258.375 213.948 259.099 213.254C259.824 213.3 259.823 212.559 259.823 212.559L259.788 185.892C259.789 186.633 259.789 186.633 259.064 186.587C258.34 187.281 256.166 187.143 255.44 186.356C254.716 187.05 254.715 186.31 254.714 185.569Z" fill="#20995C"/>
<path d="M254.719 187.066L254.749 213.957L254.719 187.066C255.854 187.129 254.719 187.066 254.719 187.066Z" fill="#20995C"/>
<path d="M255.405 187.074L255.444 213.936L256.343 213.998L255.405 187.074Z" fill="#20995C"/>
<path d="M256.1 187.083L256.139 213.945C256.139 213.945 256.139 213.945 257.038 214.007L256.1 187.083Z" fill="#20995C"/>
<path d="M256.108 187.083L256.139 213.974L256.108 187.083C257.244 187.146 256.108 187.083 256.108 187.083Z" fill="#20995C"/>
<path d="M256.792 187.84L256.829 214.715L256.792 187.84C257.756 187.902 257.756 187.902 256.792 187.84Z" fill="#20995C"/>
<path d="M258.182 187.106L258.223 213.918C258.223 213.918 258.223 213.918 259.024 213.98C259.826 214.042 259.825 213.298 259.825 213.298L259.783 186.485C259.783 186.485 259.784 187.23 258.182 187.106C258.983 187.168 258.983 187.168 258.182 187.106Z" fill="#20995C"/>
<path d="M255.606 184.82C254.908 185.475 254.909 186.173 255.608 186.914C256.308 187.656 258.404 187.785 259.102 187.13C259.799 186.475 259.799 185.777 259.099 185.036C257.701 184.252 256.303 184.165 255.606 184.82Z" fill="#20995C"/>
<path d="M247.984 142.104C247.984 142.104 247.983 142.848 247.984 142.104C247.983 142.848 247.983 142.848 247.983 142.848C247.983 142.848 247.983 142.848 248.69 143.611C248.69 143.611 248.69 143.611 249.397 143.631C250.104 143.65 250.103 144.394 250.81 144.414C250.81 144.414 250.81 144.414 251.517 144.433L252.224 144.453L252.931 144.473C253.638 144.492 253.638 144.492 254.345 144.512C255.052 144.532 255.758 144.551 255.758 144.551C256.465 144.571 257.172 144.59 257.172 144.59C257.879 144.61 257.879 144.61 258.586 144.63C259.293 144.649 259.293 144.649 260 143.925C260.707 143.945 260.707 143.201 261.414 143.22C263.536 141.792 264.244 140.323 264.244 138.836L264.219 183.468C264.218 184.956 263.51 186.424 261.389 187.853C260.682 187.833 260.682 188.577 259.975 188.558L259.268 188.538C259.268 188.538 259.268 188.538 258.561 188.518L257.854 188.499C257.854 188.499 257.854 188.499 257.147 188.479L256.44 188.459C256.44 188.459 256.44 188.459 255.733 188.44C255.027 188.42 255.027 188.42 254.32 188.401L253.613 188.381L252.906 188.361C252.906 188.361 252.906 188.361 252.199 188.342C252.199 188.342 252.199 188.342 251.492 188.322C251.492 188.322 251.492 188.322 250.785 188.302C250.078 188.283 250.079 187.539 249.372 187.519C249.372 187.519 249.372 187.519 248.665 186.756L247.984 142.104Z" fill="#0A7C47"/>
<path d="M250.996 137.667C247.508 139.697 247.509 143.292 250.998 145.577C254.486 147.862 260.764 148.091 264.252 146.062C267.739 144.032 267.738 140.436 264.25 138.152C260.761 135.867 255.181 135.663 250.996 137.667Z" fill="#07AF5A"/>
<path d="M255.173 115.292L255.18 142.093C255.181 142.838 255.181 142.838 255.902 142.864C256.623 143.635 258.787 143.713 259.508 142.995C260.23 143.021 260.229 142.277 260.229 141.532L260.222 114.731C260.222 115.476 260.222 115.476 259.501 116.194C258.78 116.912 256.616 116.834 255.895 116.063C255.895 116.063 255.174 116.037 255.173 115.292Z" fill="#0A7C47"/>
<path d="M255.861 116.798L255.876 143.687C255.876 143.687 255.876 143.687 256.75 143.722L255.861 116.798C256.735 116.834 256.735 116.834 255.861 116.798Z" fill="#0A7C47"/>
<path d="M256.554 116.808L256.569 143.696C256.569 143.696 256.569 143.696 257.444 143.731L256.554 116.808C257.429 116.843 256.554 116.808 256.554 116.808Z" fill="#0A7C47"/>
<path d="M257.262 116.816L257.264 143.719L257.262 116.816C258.333 116.853 257.262 116.816 257.262 116.816Z" fill="#0A7C47"/>
<path d="M257.948 116.825L257.959 143.72L257.948 116.825C258.877 116.861 258.877 116.861 257.948 116.825Z" fill="#0A7C47"/>
<path d="M259.328 116.839L259.349 143.704C259.349 143.704 259.349 143.704 260.141 143.739C260.934 143.774 260.933 143.028 260.932 142.281L260.912 115.417C260.912 116.163 260.12 116.128 259.328 116.839Z" fill="#0A7C47"/>
<path d="M256.039 114.551C255.341 115.249 255.341 115.972 256.039 116.721C256.737 117.47 258.832 117.547 259.53 116.849C260.228 116.152 260.227 115.428 259.529 114.679C258.831 113.931 257.435 113.879 256.039 114.551Z" fill="#20995C"/>
<path d="M273.998 226.184C274.72 225.458 276.163 225.497 276.883 226.263C277.605 226.283 277.604 227.029 277.604 227.029L277.591 249.406C277.591 249.406 277.59 250.152 276.869 250.132C276.869 250.132 276.869 250.132 276.148 250.112L276.161 227.735C273.277 226.91 273.998 226.93 273.998 226.184Z" fill="#33B275"/>
<path d="M266.45 206.633C266.45 207.374 267.152 207.394 266.45 206.633C266.45 207.374 266.45 207.374 266.45 207.374C266.45 207.374 266.45 207.374 267.152 208.136C267.152 208.136 267.152 208.136 267.854 208.155C268.556 208.175 268.556 208.917 269.258 208.936C269.961 208.956 269.961 208.956 270.663 209.717C271.365 209.737 271.365 209.737 272.067 209.757C272.77 209.776 272.77 209.776 273.472 209.796C274.174 209.816 274.174 209.816 274.877 209.835C275.579 209.855 275.579 209.855 276.282 209.875C276.984 209.894 276.984 209.894 277.687 209.172C278.389 209.192 278.389 208.45 279.092 208.47C281.2 207.046 281.903 206.324 281.903 204.841L281.89 230.055C281.889 231.538 281.186 233.001 279.078 233.684C278.376 233.664 278.376 234.406 277.673 234.386L276.971 234.367C276.971 234.367 276.971 234.367 276.268 234.347L275.566 234.327L274.864 234.308C274.864 234.308 274.864 234.308 274.161 234.288C273.459 234.268 273.459 234.268 273.459 234.268L272.757 234.249L272.054 234.229C272.054 234.229 272.054 234.229 271.352 234.209C271.352 234.209 271.352 234.209 270.649 234.19C270.649 234.19 270.649 234.19 269.947 234.17C269.245 234.15 269.245 233.409 268.543 233.389C268.543 233.389 268.543 233.389 267.841 232.628L266.45 206.633Z" fill="black"/>
<path d="M269.358 202.198C265.871 204.226 265.872 207.821 269.36 210.105C272.849 212.389 278.429 212.594 282.614 210.591C286.102 208.562 286.101 204.968 282.612 202.683C279.124 200.399 272.845 200.169 269.358 202.198Z" fill="#33B275"/>
<path d="M274.241 183.571C274.241 183.571 274.241 184.315 274.241 183.571C274.241 184.315 274.241 184.315 274.241 183.571C274.241 184.315 274.241 184.315 274.241 183.571C274.241 184.315 274.96 184.342 274.241 183.571C274.96 184.342 274.96 184.342 274.241 183.571C274.96 184.342 274.96 184.342 275.68 184.368L276.399 184.394L277.119 184.421L277.838 184.447C278.558 184.473 278.558 183.729 278.558 183.729L278.564 206.056C278.564 206.056 278.564 206.8 277.844 206.774C277.844 206.774 277.844 206.774 277.125 206.748L274.241 183.571Z" fill="black"/>
<path d="M275.077 182.815C274.379 183.492 274.38 184.204 275.079 184.237C275.778 184.983 277.175 185.05 277.873 184.372C278.571 183.695 278.57 182.983 277.871 182.238C277.173 182.204 275.775 182.137 275.077 182.815Z" fill="#33B275"/>
<path d="M331.917 184.289C332.639 183.563 334.083 183.602 334.804 184.368C335.526 184.388 335.526 185.134 335.526 185.134L335.512 207.512C335.512 207.512 335.512 208.258 334.79 208.238C334.79 208.238 334.79 208.238 334.068 208.218L334.082 185.84C331.917 185.035 331.917 184.289 331.917 184.289ZM335.526 185.134C335.526 185.134 335.525 185.88 335.526 185.134C335.525 185.88 335.526 185.134 335.526 185.134Z" fill="#33B275"/>
<path d="M325.069 164.752C325.069 165.493 325.069 165.493 325.069 165.493C325.069 165.493 325.069 165.493 325.771 166.254C325.771 166.254 325.771 166.254 326.473 166.274C327.175 166.294 327.175 167.035 327.877 167.055C328.579 167.074 328.579 167.074 329.281 167.835C329.983 167.855 329.983 167.855 330.686 167.875C331.388 167.894 331.388 167.894 332.09 167.914C332.792 167.934 332.792 167.934 333.495 167.953C334.197 167.973 334.197 167.973 334.899 167.993C335.601 168.012 335.601 168.012 336.304 167.291C337.006 167.31 337.006 166.569 337.709 166.588C339.816 165.164 340.519 164.443 340.52 162.96L340.506 188.17C340.505 189.653 339.802 191.116 337.695 191.798C336.993 191.779 336.992 192.52 336.29 192.5L335.588 192.481C335.588 192.481 335.588 192.481 334.886 192.461L334.184 192.442L333.481 192.422C333.481 192.422 333.481 192.422 332.779 192.402L332.077 192.383L331.375 192.363L330.673 192.343C330.673 192.343 330.672 192.343 329.97 192.324C329.97 192.324 329.97 192.324 329.268 192.304C329.268 192.304 329.268 192.304 328.566 192.284C327.864 192.265 327.864 191.523 327.162 191.503C327.162 191.503 327.162 191.503 326.46 191.484C326.46 191.484 326.46 191.484 325.758 190.723L325.069 164.752C324.368 163.99 325.07 164.01 325.069 164.752Z" fill="black"/>
<path d="M327.28 160.302C323.792 162.33 323.793 165.924 327.282 168.209C330.77 170.494 336.351 170.699 340.536 168.697C344.023 166.668 344.022 163.074 340.534 160.789C337.045 158.504 330.767 158.273 327.28 160.302Z" fill="#33B275"/>
<path d="M332.162 141.675C332.882 141.701 332.882 141.701 332.162 141.675C332.882 141.701 332.883 142.445 332.162 141.675C332.883 142.445 332.883 142.445 333.603 142.472L334.323 142.498L335.043 142.524L335.763 142.55C336.483 142.577 336.483 141.832 336.483 141.832L336.489 164.162C336.489 164.162 336.489 164.907 335.769 164.88C335.769 164.88 335.769 164.88 335.049 164.854L332.162 141.675C332.162 140.93 332.162 140.93 332.162 141.675C332.162 140.93 332.162 141.675 332.162 141.675Z" fill="black"/>
<path d="M333.004 140.172C332.306 140.85 332.306 141.562 333.005 141.595C333.704 142.341 335.101 142.408 335.799 141.73C336.497 141.053 336.497 140.341 335.797 139.596C335.099 139.562 333.702 139.495 333.004 140.172Z" fill="#33B275"/>
<path d="M289.624 286.949C290.342 286.223 291.777 286.263 292.494 287.029C293.211 287.048 293.211 287.794 293.211 287.794L293.198 310.162C293.198 310.162 293.197 310.907 292.48 310.888C292.48 310.888 292.48 310.888 291.762 310.868L291.775 288.5C288.906 287.675 288.906 287.675 289.624 286.949ZM288.905 289.166C288.905 289.166 288.906 288.421 288.905 289.166C288.906 288.421 288.905 289.166 288.905 289.166ZM293.21 288.54C293.21 289.285 293.21 289.285 293.21 288.54C293.21 289.285 293.21 289.285 293.21 288.54Z" fill="#33B275"/>
<path d="M282.044 267.407C282.044 267.407 282.043 268.148 282.044 267.407C282.043 268.148 282.043 268.148 282.044 267.407C282.043 268.148 282.043 268.148 282.043 268.148C282.043 268.148 282.043 268.148 282.744 268.908C282.744 268.908 282.744 268.908 283.446 268.928C284.847 271.93 285.549 271.95 286.25 271.97C286.25 271.97 286.25 271.97 286.951 271.989C287.653 272.009 287.653 272.009 288.354 272.769C289.055 272.789 289.055 272.789 289.757 272.809C290.458 272.828 290.458 272.828 291.16 272.848C291.861 272.867 291.861 272.867 292.563 272.887C293.264 272.907 293.264 272.907 293.966 272.926C294.667 272.946 294.667 272.946 295.369 272.225C296.07 272.245 296.071 271.504 296.772 271.523C298.877 270.101 299.579 269.38 299.58 267.898L299.567 293.085C299.566 294.566 298.864 296.028 296.759 296.71C296.057 296.69 296.057 297.431 295.355 297.411L294.654 297.392C294.654 297.392 294.654 297.392 293.953 297.372L293.251 297.352L292.55 297.333C292.55 297.333 292.55 297.333 291.848 297.313L291.147 297.293L290.445 297.274L289.744 297.254C289.744 297.254 289.744 297.254 289.042 297.234C289.042 297.234 289.042 297.234 288.341 297.215C288.341 297.215 288.341 297.215 287.639 297.195C286.938 297.176 286.938 296.435 286.237 296.415C286.237 296.415 286.237 296.415 285.536 295.655L282.044 267.407Z" fill="black"/>
<path d="M284.964 262.971C281.477 264.996 281.478 268.584 284.966 270.864C288.454 273.144 294.033 273.349 298.218 271.35C301.704 269.325 301.703 265.738 298.216 263.458C294.031 261.869 288.451 261.664 284.964 262.971Z" fill="#33B275"/>
<path d="M289.153 244.318C289.872 245.088 289.872 245.088 289.153 244.318C289.872 245.088 289.872 245.088 289.153 244.318C289.872 245.088 289.872 245.088 289.153 244.318C289.872 245.088 289.872 245.088 289.153 244.318C289.872 245.088 289.872 245.088 289.153 244.318C289.872 245.088 289.872 245.088 290.592 245.115L291.311 245.141L292.031 245.167L292.75 245.194C293.47 245.22 293.47 244.476 293.47 244.476L293.476 266.803C293.476 266.803 293.476 267.547 292.756 267.521C292.756 267.521 292.756 267.521 292.037 267.494L289.153 244.318Z" fill="black"/>
<path d="M289.988 243.561C289.29 244.239 289.291 244.95 289.99 244.984C290.689 245.729 292.086 245.797 292.784 245.119C293.482 244.441 293.481 243.73 292.782 242.985C292.083 242.951 291.385 242.917 289.988 243.561Z" fill="#33B275"/>
<path opacity="0.6" d="M87.8414 507.216C55.7698 522.485 56.4907 549.123 87.8937 566.725C119.297 584.328 170.217 587.462 202.289 572.194C233.663 557.592 234.337 530.321 202.934 512.718C170.833 494.381 119.215 491.914 87.8414 507.216Z" fill="#20995C" fill-opacity="0.47"/>
<g opacity="0.8333">
<path opacity="0.6667" d="M81.1747 451.077C44.9194 468.249 44.9459 498.357 80.5369 518.964C116.128 539.57 174.721 542.372 210.976 525.2C247.232 508.029 247.205 477.92 211.614 457.314C175.326 436.674 116.732 433.872 81.1747 451.077Z" fill="#20995C" fill-opacity="0.6"/>
</g>
<g opacity="0.6667">
<path opacity="0.7333" d="M74.5085 394.927C34.0695 414.002 34.0998 448.317 73.8782 471.227C114.354 494.171 179.226 497.273 219.665 478.199C260.104 459.124 260.073 424.809 220.295 401.899C179.819 378.955 114.25 375.819 74.5085 394.927Z" fill="#20995C" fill-opacity="0.66"/>
</g>
<g opacity="0.5">
<path opacity="0.8" d="M67.1464 338.773C21.8273 360.414 22.5575 397.561 66.5234 423.471C111.186 448.714 183.033 452.85 228.353 431.209C272.975 410.235 273.639 372.455 228.976 346.512C185.01 321.302 112.466 317.833 67.1464 338.773Z" fill="#20995C" fill-opacity="0.34"/>
</g>
<g opacity="0.3333">
<path opacity="0.8667" d="M60.4854 282.621C10.9843 306.153 11.0206 347.45 59.8691 374.981C108.718 402.513 188.235 407.013 237.737 383.481C286.541 360.616 287.201 318.652 238.353 291.12C189.504 263.589 109.987 259.789 60.4854 282.621Z" fill="#20995C" fill-opacity="0.5"/>
</g>
<g opacity="0.1667">
<path opacity="0.9333" d="M53.8178 226.44C0.13194 251.881 0.171374 296.697 53.209 327.241C106.247 357.785 192.741 361.921 246.427 336.48C300.113 311.038 300.074 266.223 247.036 235.678C193.998 205.134 107.504 200.998 53.8178 226.44Z" fill="#20995C" fill-opacity="0.18"/>
</g>
<g opacity="0.3">
<path opacity="0.6" d="M87.935 507.237C55.8673 523.796 56.5484 551.442 87.8995 569.032C119.251 586.622 170.124 588.759 202.192 572.199C233.562 556.347 234.276 528.013 202.924 510.423C170.876 492.814 119.305 491.385 87.935 507.237Z" fill="white"/>
</g>
<path opacity="0.2" d="M96.4079 516.305C67.8148 533.683 67.7141 561.927 96.18 580.225C124.646 598.522 170.571 599.262 199.164 581.884C227.757 564.505 227.858 536.261 199.392 517.964C170.926 499.666 125.001 498.926 96.4079 516.305Z" fill="#20995C" fill-opacity="0.58"/>
<path d="M153.938 555.076C153.938 555.076 148.352 564.504 156.004 567.601C164.354 569.98 161.579 564.782 179.671 569.567C197.068 574.338 194.998 564.016 195.002 561.813C194.31 559.596 186.657 556.498 183.178 555.691C179.002 554.869 163.694 550.142 163.694 550.142L153.945 551.405L153.938 555.076Z" fill="#111114"/>
<path d="M181.219 189.431C181.219 189.431 182.62 176.224 184.024 174.067C185.429 171.91 190.344 161.046 199.477 159.919C204.396 159.368 201.587 164.418 197.373 170.152C195.266 173.019 193.158 174.413 193.863 180.333C194.567 184.779 193.164 191.356 192.462 194.276C191.761 197.197 181.219 189.431 181.219 189.431Z" fill="#EFB185"/>
<path d="M192.403 193.536C193.109 190.599 193.814 183.959 195.935 180.335C198.762 175.997 194.517 172.134 196.638 169.991C200.174 165.679 202.294 160.574 201.586 159.806C199.465 163.431 193.099 162.451 190.273 173.456C188.86 177.847 188.864 188.218 188.866 193.403C191.695 194.25 192.403 195.017 192.403 193.536Z" fill="#E6A376"/>
<path d="M188.878 192.663C188.878 192.663 197.314 181.18 199.422 177.572C201.531 173.964 201.53 170.276 200.123 170.223C199.42 170.197 192.391 181.733 188.873 177.913C188.169 176.412 189.581 191.215 188.878 192.663Z" fill="#EFB185"/>
<path d="M104.405 246.821C104.405 246.821 105.792 263.004 125.341 257.681C144.89 252.357 179.8 238.657 184.692 228.52C188.886 219.098 193.787 192.083 193.787 192.083C193.787 192.083 184.012 195.478 180.526 186.575L165.151 219.167C164.453 219.882 103.015 235.774 104.405 246.821Z" fill="black"/>
<path d="M104.435 246.84C103.743 235.812 165.183 219.918 165.183 219.918L180.558 187.322C181.953 190.297 184.046 191.823 186.14 192.616C184.739 201.384 181.241 215.964 178.444 223.224C174.25 233.382 138.641 247.063 119.092 252.387C113.507 253.699 109.318 253.581 106.527 252.036C104.434 249.041 104.435 246.84 104.435 246.84Z" fill="black"/>
<path d="M134.062 516.981C134.062 516.981 141.737 518.627 139.635 523.032C137.533 527.438 129.145 533.935 128.442 536.887C127.04 539.824 120.739 550.074 117.95 548.532C115.857 547.746 110.27 549.111 110.291 537.245C111.009 526.135 124.289 516.775 134.062 516.981Z" fill="#111114"/>
<path d="M112.134 363.277C112.134 363.277 112.011 431.184 111.997 438.646C111.984 446.109 104.074 506.39 108.281 532.597C108.281 532.597 122.435 547.819 134.516 533.147C134.516 533.147 138.907 457.868 142.482 441.525C146.059 424.436 144.734 372.916 144.734 372.916L112.134 363.277Z" fill="black"/>
<path d="M135.551 373.232C135.551 373.232 139.02 416.591 141.78 459.935C141.78 459.935 143.752 545.802 145.858 558.533C145.858 558.533 172.102 565.801 174.963 553.173C174.963 553.173 174.391 477.784 175.129 462.127C175.867 446.47 177.367 402.469 171.736 376.976C165.397 350.722 135.551 373.232 135.551 373.232Z" fill="black"/>
<path d="M145.91 558.641C143.79 545.904 141.806 459.999 141.806 459.999C139.717 430.837 137.628 401.674 136.23 385.219L153.365 390.056C153.365 390.056 165.448 422.414 163.215 470.899C161.718 508.199 160.934 545.515 160.907 560.447C153.05 560.283 145.91 558.641 145.91 558.641Z" fill="#000407"/>
<path d="M108.315 531.99C103.326 505.746 112.076 446.179 112.091 437.964C112.105 430.495 112.22 369.255 112.232 363.28L126.606 374.781C126.606 374.781 130.833 423.415 126.462 450.958C122.096 476.261 124.884 524.865 122.698 539.01C114.78 538.846 108.315 531.99 108.315 531.99Z" fill="#000407"/>
<path d="M108.101 242.13C108.101 242.13 95.475 248.562 102.443 271.04C109.411 293.517 114.289 308.506 114.275 316.694C113.56 324.866 110.706 353.09 109.294 359.015C109.294 359.015 107.159 377.578 147.082 389.587C147.082 389.587 180.011 394.005 174.446 370.813C168.881 347.621 166.845 310.362 168.261 302.204C168.977 293.287 173.914 275.528 153.614 263.189C131.912 250.821 121.416 241.668 108.101 242.13Z" fill="black"/>
<path d="M117.07 242.924C126.901 245.367 136.722 253.025 152.863 262.306C173.917 274.672 168.265 292.434 167.546 301.36C166.828 310.286 168.869 347.582 173.746 370.037C177.928 388.752 157.553 389.812 149.827 388.904C113.345 362.056 116.982 292.097 117.07 242.924Z" fill="black"/>
<path d="M123.214 231.802C123.214 231.802 124.588 244.445 120.384 252.518C116.879 259.864 144.799 266.39 145.509 259.727C145.51 258.985 139.944 247.738 146.949 235.272C150.451 229.41 123.214 231.802 123.214 231.802Z" fill="#EFB185"/>
<path d="M121.09 253.284C123.892 247.412 123.907 239.256 123.915 234.807L144.137 245.615C143.439 245.601 129.473 249.013 126.663 259.334C122.477 258.504 119.69 255.479 121.09 253.284Z" fill="#DD9569"/>
<path d="M152.714 198.777C152.714 198.777 156.888 210.01 156.171 220.397C155.453 230.784 156.847 233.042 156.139 238.228C156.135 240.457 155.431 243.414 154.03 244.87C151.229 247.783 144.236 249.121 135.854 245.229C125.376 241.292 114.219 225.454 119.136 212.184C123.355 198.156 137.355 187.308 152.714 198.777Z" fill="#EFB185"/>
<path d="M119.797 227.057C124.016 214.51 134.531 200.609 134.533 199.123C134.535 198.379 138.035 196.223 141.536 194.067C145.033 194.141 149.226 195.717 153.417 198.779C153.417 198.779 154.81 201.781 155.502 206.256C152.699 209.17 147.799 212.04 147.094 214.998C144.985 220.9 146.368 229.849 147.76 233.595C149.152 237.341 142.848 243.154 144.24 246.9C144.24 246.9 144.24 246.9 144.238 247.643C142.14 247.599 139.344 246.797 135.85 245.236C129.56 242.873 122.58 235.292 119.797 227.057Z" fill="#E6A376"/>
<path d="M164.598 187.145C168.093 184.993 157.585 204.061 148.501 208.32C142.91 211.17 143.592 220.087 143.588 222.313C143.585 223.797 145.666 232.002 144.966 232.729C143.566 234.925 139.388 228.16 137.292 228.857C132.404 229.496 133.791 234.719 138.668 240.757C143.545 246.796 130.275 248.741 124.698 243.429C121.211 241.13 120.516 239.631 116.342 230.64C110.082 217.153 108.72 197.834 124.787 193.722C139.457 189.581 155.51 192.888 164.598 187.145Z" fill="#131C24"/>
<path d="M124.697 244.18C121.21 241.881 120.514 240.382 116.341 231.391C110.081 217.904 108.014 202.281 122.691 194.43C137.367 186.58 147.825 195.704 164.596 187.897C165.295 187.17 153.394 204.724 135.934 207.323C128.251 208.644 127.548 211.597 127.532 220.499C127.516 229.402 126.1 240.5 139.358 245.232C133.766 248.823 126.789 245.708 124.697 244.18Z" fill="#1D2833"/>
<path d="M144.041 256.059L153.777 262.876C153.777 262.876 125.212 272.561 116.884 257.692C115.496 255.459 116.9 248.876 121.777 247.509C121.777 247.509 122.451 259.278 144.041 256.059Z" fill="black"/>
<path d="M244.006 256.994C244.006 256.994 251.009 248.325 251.011 246.108C251.012 243.153 254.513 241.774 254.51 245.467C254.508 249.161 252.407 252.058 252.407 252.058C252.407 252.058 262.21 243.466 260.113 239.714C258.015 235.961 267.808 246.578 265.705 252.429C263.602 258.281 262.198 265.629 246.8 267.415C246.8 267.415 242.603 262.127 244.006 256.994Z" fill="#F1B287"/>
<path d="M151.429 270.449C151.429 270.449 145.153 284.68 164.648 289.536C183.446 294.373 216.17 301.033 224.53 294.781C232.89 288.528 253.096 269.638 253.096 269.638C253.096 269.638 244.045 266.509 244.05 257.867L213.4 276.471C213.4 276.471 155.613 260.481 151.429 270.449Z" fill="black"/>
<path d="M151.499 270.295C155.681 260.433 212.741 276.237 212.741 276.237L243.375 257.831C243.374 259.969 243.373 261.394 244.068 262.838C234.32 269.699 216.912 283.476 212.039 284.769C206.47 286.755 160.542 277.667 150.103 275.958C150.801 272.414 151.499 270.295 151.499 270.295Z" fill="black"/>
<defs>
<linearGradient id="paint0_linear" x1="300.538" y1="336.443" x2="274.826" y2="427.985" gradientUnits="userSpaceOnUse">
<stop stop-color="#20995C"/>
<stop offset="1"/>
</linearGradient>
<linearGradient id="paint1_linear" x1="518.751" y1="395.585" x2="446.055" y2="528.009" gradientUnits="userSpaceOnUse">
<stop stop-color="#0A7C47"/>
<stop offset="1"/>
</linearGradient>
<linearGradient id="paint2_linear" x1="408.806" y1="321.641" x2="403.367" y2="579.587" gradientUnits="userSpaceOnUse">
<stop stop-color="#1F2026"/>
<stop offset="1" stop-color="#0A7C47" stop-opacity="0"/>
</linearGradient>
</defs>
</svg>
